<?xml version="1.0" encoding="UTF-8" standalone="no"?>
<svg
   id="Layer_1"
   data-name="Layer 1"
   viewBox="0 0 573 281.46"
   version="1.1"
   sodipodi:docname="Jefferson_Community_College_Logo_SUNY.svg"
   inkscape:version="1.1.1 (3bf5ae0d25, 2021-09-20)"
   xmlns:inkscape="http://www.inkscape.org/namespaces/inkscape"
   xmlns:sodipodi="http://sodipodi.sourceforge.net/DTD/sodipodi-0.dtd"
   xmlns="http://www.w3.org/2000/svg"
   xmlns:svg="http://www.w3.org/2000/svg"
   xmlns:rdf="http://www.w3.org/1999/02/22-rdf-syntax-ns#"
   xmlns:cc="http://creativecommons.org/ns#"
   xmlns:dc="http://purl.org/dc/elements/1.1/">
  <sodipodi:namedview
     id="namedview11588"
     pagecolor="#ffffff"
     bordercolor="#666666"
     borderopacity="1.0"
     inkscape:pageshadow="2"
     inkscape:pageopacity="0.0"
     inkscape:pagecheckerboard="0"
     showgrid="false"
     inkscape:zoom="2"
     inkscape:cx="265.75"
     inkscape:cy="30.75"
     inkscape:window-width="2560"
     inkscape:window-height="1009"
     inkscape:window-x="-8"
     inkscape:window-y="-8"
     inkscape:window-maximized="1"
     inkscape:current-layer="Layer_1" />
  <defs
     id="defs11513">
    <style
       id="style11511">.cls-1{fill:#fff;}</style>
  </defs>
  <title
     id="title11515">Artboard 1</title>
  <path
     class="cls-1"
     d="M148.44,220.39V128.14a8.91,8.91,0,0,0-5-8.4h21.84a8.91,8.91,0,0,0-5,8.4v92.25c0,4.3-2,53.79-44.45,61.07,0,0,32.69-9.52,32.69-61.07"
     id="path11517"
     style="fill:#8a262a;fill-opacity:1" />
  <path
     class="cls-1"
     d="M190.68,213.8h-.59l-7.88-.59V186.73h14.57a2.74,2.74,0,0,1,1.75,1.56l3.09-.57v-8.2l-3.07-.61a3.06,3.06,0,0,1-1.77,1.6H182.21V160.63h14.37c3.88,0,5.45.91,7,2.61l2.78,3V154.23H166.13l5.35,3a2.81,2.81,0,0,1,1.69,2.77v54.42a2.71,2.71,0,0,1-1.62,2.72l.71,3h36.07l1.81-10.25-3-1c-2.58,4.84-4.62,5-16.48,5"
     id="path11519"
     style="fill:#8a262a;fill-opacity:1" />
  <path
     class="cls-1"
     d="M208.73,154.23l5.38,3a2.79,2.79,0,0,1,1.68,2.76v54.42a2.71,2.71,0,0,1-1.62,2.72l.71,3h10.87l.71-3a2.71,2.71,0,0,1-1.62-2.72V186.73H239.4a2.75,2.75,0,0,1,1.76,1.56l3.08-.57v-8.2l-3.06-.61a3.07,3.07,0,0,1-1.78,1.6H224.84V160.63h16c4.81,0,6.3,1.23,7.14,2.44l2.91,4.23V154.23h-1.6"
     id="path11521"
     style="fill:#8a262a;fill-opacity:1" />
  <path
     class="cls-1"
     d="M253.16,154.23l5.34,3a2.81,2.81,0,0,1,1.69,2.77v54.42a2.71,2.71,0,0,1-1.62,2.72l.71,3h10.87l.7-3a2.71,2.71,0,0,1-1.62-2.72V186.73H283.8a2.81,2.81,0,0,1,1.76,1.56l3.08-.57v-8.2l-3.07-.61a3,3,0,0,1-1.77,1.6H269.23V160.63h16c4.81,0,6.31,1.23,7.15,2.44l2.9,4.22V154.23h-1.59"
     id="path11523"
     style="fill:#8a262a;fill-opacity:1" />
  <path
     class="cls-1"
     d="M322.09,213.8h-.59l-7.88-.59V186.73H328.2a2.82,2.82,0,0,1,1.74,1.55l3.09-.56v-8.2l-3.07-.6a3.12,3.12,0,0,1-1.76,1.59H313.62V160.63H328c3.88,0,5.45.91,7,2.61l2.78,3V154.23H297.54l5.36,3a2.82,2.82,0,0,1,1.68,2.77v54.42A2.71,2.71,0,0,1,303,217.1l.71,3h36.07l1.81-10.25-3-1c-2.58,4.84-4.62,5-16.48,5"
     id="path11525"
     style="fill:#8a262a;fill-opacity:1" />
  <path
     class="cls-1"
     d="M377.89,193l-.4-.6a22.5,22.5,0,0,0-4.41-5c5.55-2.23,11.32-7.69,11.32-16.33,0-2.8-1.12-16.8-23.14-16.8h-21l5.37,3A2.82,2.82,0,0,1,347.3,160v54.42a2.71,2.71,0,0,1-1.61,2.72l.7,3h10.87l.71-3a2.7,2.7,0,0,1-1.63-2.72V190.57l5-.07c4.08,0,5.66,2.58,7.66,5.86l3.28,5.29L381,215.26c.91,1.35,3.34,4.94,7.92,4.94l7.27-.1.57-3a19.08,19.08,0,0,1-5.48-3.31C386.66,209,378,193.12,377.89,193m-3-21.74c0,9.1-6.94,13.17-13.82,13.17l-4.73-.14v-23.7l6.77-.29C372.41,160.26,374.89,167.15,374.89,171.22Z"
     id="path11527"
     style="fill:#8a262a;fill-opacity:1" />
  <path
     class="cls-1"
     d="M420.38,181.72l-2.95-1.48c-9.6-5.07-11.68-7.16-11.68-11.79,0-2.1.68-8.94,9.37-8.94,7.76,0,12.26,7.23,12.84,10.24l3.15-.36-.5-11.36-.61-.45a22.86,22.86,0,0,0-13.3-4.09c-9.6,0-19.8,6-19.8,17,0,9,6.27,13.73,15.68,18.13l1.05.49c8.79,4.09,12.8,6,12.8,13.48,0,2-.55,12.15-11.58,12.15-7.2,0-12.41-4.6-15.5-13.67l-3.1.56.4,12.62.93.61c3.4,2.25,9.08,6,17.27,6,8.8,0,21-6.9,21-19.85,0-11.59-7.52-15.32-15.47-19.28"
     id="path11529"
     style="fill:#8a262a;fill-opacity:1" />
  <path
     class="cls-1"
     d="M475.44,153.5A34.68,34.68,0,0,0,450,162.73c-6.7,6.22-10.87,15-11.14,23.37,0,.38,0,.76,0,1.13a32.32,32.32,0,0,0,8.88,22.28,36.7,36.7,0,0,0,25.37,11.34c8.66.32,18.32-3.42,25.23-9.79A32.49,32.49,0,0,0,509,188a31.68,31.68,0,0,0-8.66-23.31,36.55,36.55,0,0,0-24.93-11.15M474,214.45c-10.07,0-25.06-7.58-25.06-28.48,0-15.71,10.11-26.27,25.15-26.27,14.43,0,24.5,11.71,24.5,28.48,0,15.47-10.11,26.27-24.59,26.27Z"
     id="path11531"
     style="fill:#8a262a;fill-opacity:1" />
  <path
     class="cls-1"
     d="M566.87,154.23h-8.45l-.74,3a2.69,2.69,0,0,1,1.65,2.75v40.46l-36.82-46.19H512.36l-.52,3.08a6.43,6.43,0,0,1,3.4,2.65c.26.43.26.43.26,1.95v52.47a2.7,2.7,0,0,1-1.63,2.72l.72,3h8.35l.68-3a2.62,2.62,0,0,1-1.59-2.71V168.83c4.44,5.86,15.14,19.36,41.09,51.51l2.84,3.52V160a2.81,2.81,0,0,1,1.69-2.77l5.35-3"
     id="path11533"
     style="fill:#8a262a;fill-opacity:1" />
  <path
     class="cls-1"
     d="M171.84,125.39c0-3.29,3.07-5.24,6.4-5.24a7.73,7.73,0,0,1,4.35,1.29l.16,3.6a5.43,5.43,0,0,0-5.07-3.91c-3.13,0-3.85,2.19-3.85,3.57,0,2,1.14,2.82,4.41,4.48s6.18,2.54,6.18,6.58-3.89,6.21-6.83,6.21a10.27,10.27,0,0,1-5.85-2l-.14-4c.79,2.23,2.43,5,6,5a4.4,4.4,0,0,0,4.64-4.67c0-3-1.86-3.73-5.2-5.24s-5.19-3-5.19-5.67"
     id="path11535"
     style="fill:#d98d51;fill-opacity:1" />
  <path
     class="cls-1"
     d="M193.27,121.5v18.81a1.43,1.43,0,0,0,.86,1.41h-3.79a1.44,1.44,0,0,0,.85-1.41V121.5c-2.45,0-5.46.16-5.46.16a2.33,2.33,0,0,0-1.77,1.22V120.4h16.48v2.48a2.33,2.33,0,0,0-1.8-1.22s-3-.16-5.37-.16"
     id="path11537"
     style="fill:#d98d51;fill-opacity:1" />
  <path
     class="cls-1"
     d="M200,135c-1.15,2.6-2.09,4.82-2.26,5.26-.29.72-.16,1.2.69,1.51h-3.47a3.18,3.18,0,0,0,1.41-1.51c.49-1.19,8.76-20.12,8.76-20.12s8,18.93,8.53,20.12a2.37,2.37,0,0,0,1.64,1.51H210.5c.85-.31,1.09-.79.76-1.51-.2-.44-1.15-2.63-2.26-5.26h-9m8.6-1.07c-1.9-4.45-4.09-9.87-4.09-9.87s-2.19,5.42-4.09,9.87Z"
     id="path11539"
     style="fill:#d98d51;fill-opacity:1" />
  <path
     class="cls-1"
     d="M218.84,121.5v18.81a1.42,1.42,0,0,0,.85,1.41H215.9a1.44,1.44,0,0,0,.85-1.41V121.5c-2.45,0-5.46.16-5.46.16a2.33,2.33,0,0,0-1.77,1.22V120.4H226v2.48a2.33,2.33,0,0,0-1.8-1.22s-3-.16-5.36-.16"
     id="path11541"
     style="fill:#d98d51;fill-opacity:1" />
  <path
     class="cls-1"
     d="M238.22,120.41v2.16a3.39,3.39,0,0,0-2.87-1.07h-5.62v7.84h5.68a1.53,1.53,0,0,0,1.15-.88v2.79a1.47,1.47,0,0,0-1.15-.88h-5.68v10a22.84,22.84,0,0,0,3.33.25c4.22,0,5.39,0,6.51-2l-.56,3H226.78a1.45,1.45,0,0,0,.88-1.41V121.82a1.48,1.48,0,0,0-.88-1.41"
     id="path11543"
     style="fill:#d98d51;fill-opacity:1" />
  <path
     class="cls-1"
     d="M255.12,142c-3.36,0-7.61-1.76-7.61-6.77V121.81a1.62,1.62,0,0,0-1-1.4h4.19a1.64,1.64,0,0,0-1.05,1.41V135.2c0,2.1.75,5.67,5.72,5.67s6.11-2.79,6.11-5.48l-.06-13.57a1.47,1.47,0,0,0-.85-1.41h3a1.47,1.47,0,0,0-.85,1.41l-.17,13.5c0,4.89-3.59,6.65-7.39,6.65"
     id="path11545"
     style="fill:#d98d51;fill-opacity:1" />
  <path
     class="cls-1"
     d="M267.19,140.31a1.41,1.41,0,0,0,.88,1.41h-2.94a1.46,1.46,0,0,0,.88-1.41V122.47c0-.68,0-.65-.2-1a2.82,2.82,0,0,0-1.47-1.09h3.3l13.8,16.7v-15.3a1.44,1.44,0,0,0-.89-1.4h3a1.48,1.48,0,0,0-.88,1.41V142s-15.46-18.49-15.46-18.8"
     id="path11547"
     style="fill:#d98d51;fill-opacity:1" />
  <path
     class="cls-1"
     d="M285.2,121.82a1.47,1.47,0,0,0-.85-1.41h3.79a1.47,1.47,0,0,0-.85,1.41v18.49a1.44,1.44,0,0,0,.85,1.41h-3.79a1.44,1.44,0,0,0,.85-1.41"
     id="path11549"
     style="fill:#d98d51;fill-opacity:1" />
  <path
     class="cls-1"
     d="M305,121.91c.26-.75.29-1.19-.53-1.5h2.81c-.85.59-.75.69-1.14,1.5-.52,1.16-7.91,20.75-7.91,20.75s-7.72-19.56-8.2-20.75a2.4,2.4,0,0,0-1.64-1.5h4.68c-.83.31-.85,1.19-.53,1.94l6.21,16"
     id="path11551"
     style="fill:#d98d51;fill-opacity:1" />
  <path
     class="cls-1"
     d="M319.07,120.41v2.16a3.41,3.41,0,0,0-2.88-1.07h-5.63v7.84h5.69a1.55,1.55,0,0,0,1.15-.88v2.79a1.49,1.49,0,0,0-1.15-.88h-5.69v10a23.13,23.13,0,0,0,3.34.25c4.22,0,5.39,0,6.5-2l-.55,3H307.63a1.46,1.46,0,0,0,.88-1.41V121.82a1.49,1.49,0,0,0-.88-1.41"
     id="path11553"
     style="fill:#d98d51;fill-opacity:1" />
  <path
     class="cls-1"
     d="M323.48,140.31a1.46,1.46,0,0,0,.88,1.41h-3.83a1.45,1.45,0,0,0,.88-1.41V121.82a1.48,1.48,0,0,0-.88-1.41h5.23c6.35,0,7.59,3.35,7.59,5.17a5.63,5.63,0,0,1-4.88,5.39,5.17,5.17,0,0,1,2.66,2.32s3.1,5.48,4.8,7.18a7.53,7.53,0,0,0,2.13,1.25l-2.55,0a2.82,2.82,0,0,1-2.32-1.44c-1.93-2.76-2.85-4.3-4-6.05-.82-1.26-1.47-2.6-3.4-2.6-.79,0-2.32,0-2.32,0v8.62m7.65-14.67c0-1.57-1-4.26-4.71-4.26a27.13,27.13,0,0,0-2.94.12v9.09s1.11.06,2.22.06C328.47,130.65,331.13,129,331.13,125.64Z"
     id="path11555"
     style="fill:#d98d51;fill-opacity:1" />
  <path
     class="cls-1"
     d="M337.05,125.39c0-3.29,3.07-5.24,6.4-5.24a7.73,7.73,0,0,1,4.35,1.29L348,125a5.43,5.43,0,0,0-5.06-3.91c-3.14,0-3.86,2.19-3.86,3.57,0,2,1.14,2.82,4.41,4.48s6.18,2.54,6.18,6.58S345.74,142,342.8,142a10.27,10.27,0,0,1-5.85-2l-.13-4c.78,2.23,2.42,5,6,5a4.4,4.4,0,0,0,4.64-4.67c0-3-1.86-3.73-5.2-5.24s-5.19-3-5.19-5.67"
     id="path11557"
     style="fill:#d98d51;fill-opacity:1" />
  <path
     class="cls-1"
     d="M351,121.82a1.46,1.46,0,0,0-.84-1.41H354a1.47,1.47,0,0,0-.85,1.41v18.49a1.44,1.44,0,0,0,.85,1.41h-3.79a1.43,1.43,0,0,0,.84-1.41"
     id="path11559"
     style="fill:#d98d51;fill-opacity:1" />
  <path
     class="cls-1"
     d="M364,121.5v18.81a1.42,1.42,0,0,0,.85,1.41H361a1.44,1.44,0,0,0,.85-1.41V121.5c-2.45,0-5.46.16-5.46.16a2.33,2.33,0,0,0-1.77,1.22V120.4h16.48v2.48a2.33,2.33,0,0,0-1.8-1.22s-3-.16-5.36-.16"
     id="path11561"
     style="fill:#d98d51;fill-opacity:1" />
  <path
     class="cls-1"
     d="M379.28,131.53l-6-9.62a4.12,4.12,0,0,0-1.89-1.5h5.29c-.82.31-1.47.47-.59,1.94l4.94,7.83,4.51-8.27c.56-1,.23-1.19-.59-1.5h3.66a3.28,3.28,0,0,0-1.79,1.5l-5.27,9.53v8.87a1.71,1.71,0,0,0,1.14,1.41H378.1c.53-.25,1.18-.69,1.18-1.41"
     id="path11563"
     style="fill:#d98d51;fill-opacity:1" />
  <path
     class="cls-1"
     d="M405.72,142c-6.11-.19-11.73-4.83-11.5-11.25a11.57,11.57,0,0,1,12.29-10.56c5.29.15,11.5,4.1,11.28,11.15s-7,10.85-12.07,10.66m9.52-10.56c0-6.08-3.79-10.22-9.19-10.22s-9.42,3.6-9.42,9.47c0,7,5.14,10.21,9.38,10.21C411.48,140.87,415.24,137,415.24,131.41Z"
     id="path11565"
     style="fill:#d98d51;fill-opacity:1" />
  <path
     class="cls-1"
     d="M419.13,121.82a1.49,1.49,0,0,0-.88-1.41h12.12v2.16c-.49-.69-1.3-1.07-3-1.07h-6.21v7.84h5.69a1.55,1.55,0,0,0,1.15-.88v2.79a1.49,1.49,0,0,0-1.15-.88h-5.69v9.94a1.47,1.47,0,0,0,.89,1.41h-3.82a1.46,1.46,0,0,0,.88-1.41"
     id="path11567"
     style="fill:#d98d51;fill-opacity:1" />
  <path
     class="cls-1"
     d="M439.36,140.31a1.41,1.41,0,0,0,.88,1.41H437.3a1.46,1.46,0,0,0,.88-1.41V122.47c0-.68,0-.65-.2-1a2.75,2.75,0,0,0-1.47-1.09h3.3l13.8,16.7v-15.3a1.44,1.44,0,0,0-.88-1.4h3a1.49,1.49,0,0,0-.88,1.41V142s-15.46-18.49-15.46-18.8"
     id="path11569"
     style="fill:#d98d51;fill-opacity:1" />
  <path
     class="cls-1"
     d="M468.22,120.41v2.16a3.39,3.39,0,0,0-2.87-1.07h-5.63v7.84h5.69a1.52,1.52,0,0,0,1.14-.88v2.79a1.46,1.46,0,0,0-1.14-.88h-5.69v10a22.88,22.88,0,0,0,3.34.25c4.21,0,5.39,0,6.51-2l-.57,3H456.78a1.46,1.46,0,0,0,.88-1.41V121.82a1.49,1.49,0,0,0-.88-1.41"
     id="path11571"
     style="fill:#d98d51;fill-opacity:1" />
  <path
     class="cls-1"
     d="M482.09,131.63l-3.76,11s-7.75-19.56-8.24-20.75a2.4,2.4,0,0,0-1.64-1.5h4.77c-.84.31-.88,1.19-.52,1.94L479,138.14l2.55-7.92c-1.64-4.08-3.15-7.78-3.37-8.31a2.24,2.24,0,0,0-1.61-1.5h4.74c-.81.31-.85,1.19-.52,1.94l1.93,4.73,1.87-5.17c.26-.75.29-1.19-.56-1.5h2.84a2.29,2.29,0,0,0-1.17,1.5l-2.39,6.58,3.46,9.78,5.63-16.36c.3-.75.16-1.19-.69-1.5h3.27c-.85.59-1,.63-1.34,1.5l-7.39,20.75s-2.06-6-4.11-11"
     id="path11573"
     style="fill:#d98d51;fill-opacity:1" />
  <path
     class="cls-1"
     d="M505.81,131.53l-6-9.62a4.15,4.15,0,0,0-1.9-1.5h5.3c-.82.31-1.47.47-.59,1.94l4.94,7.83,4.5-8.27c.56-1,.23-1.19-.58-1.5h3.66a3.3,3.3,0,0,0-1.8,1.5L508,131.44v8.87a1.7,1.7,0,0,0,1.14,1.41h-4.54c.52-.25,1.17-.69,1.17-1.41"
     id="path11575"
     style="fill:#d98d51;fill-opacity:1" />
  <path
     class="cls-1"
     d="M523.11,142c-6.12-.19-11.74-4.83-11.51-11.25a11.57,11.57,0,0,1,12.29-10.56c5.3.15,11.51,4.1,11.28,11.15s-7,10.85-12.06,10.66m9.51-10.56c0-6.08-3.79-10.22-9.19-10.22s-9.41,3.6-9.41,9.47c0,7,5.13,10.21,9.38,10.21C528.86,140.87,532.62,137,532.62,131.41Z"
     id="path11577"
     style="fill:#d98d51;fill-opacity:1" />
  <path
     class="cls-1"
     d="M538.6,140.31a1.46,1.46,0,0,0,.88,1.41h-3.82a1.46,1.46,0,0,0,.88-1.41V121.82a1.49,1.49,0,0,0-.88-1.41h5.23c6.34,0,7.58,3.35,7.58,5.17A5.63,5.63,0,0,1,543.6,131a5.1,5.1,0,0,1,2.65,2.32s3.11,5.48,4.8,7.18a7.53,7.53,0,0,0,2.13,1.25l-2.55,0a2.83,2.83,0,0,1-2.32-1.44c-1.93-2.76-2.84-4.3-4-6.05-.82-1.26-1.47-2.6-3.4-2.6-.78,0-2.32,0-2.32,0v8.62m7.65-14.67c0-1.57-1-4.26-4.71-4.26a27.13,27.13,0,0,0-2.94.12v9.09s1.11.06,2.22.06C543.6,130.65,546.25,129,546.25,125.64Z"
     id="path11579"
     style="fill:#d98d51;fill-opacity:1" />
  <path
     class="cls-1"
     d="M556,130.4c.81-.72,9.6-8.83,9.6-9.3s-.06-.41-.36-.69h4.06a8.86,8.86,0,0,0-2.39,1.25l-8.66,8.21,11,10.88a4.28,4.28,0,0,0,1.57,1H566c.37-.25.37-.38.37-.63,0-.47-9.55-9.78-10.36-10.59v9.81a1.45,1.45,0,0,0,.88,1.41h-3.83a1.46,1.46,0,0,0,.88-1.41V121.82a1.49,1.49,0,0,0-.88-1.41h3.83a1.48,1.48,0,0,0-.88,1.41"
     id="path11581"
     style="fill:#d98d51;fill-opacity:1" />
  <path
     class="cls-1"
     d="M0,204.69s72.41-80,160.19-109.49,190.12-8.08,190.12-8.08S242,55.18,154.56,84.52,0,204.69,0,204.69"
     id="path11583"
     style="fill:#d07327;fill-opacity:1" />
  <path
     class="cls-1"
     d="M152.44,78.15c28.09-9.43,58-12.73,86-12.82V40.38L157.26,0,75.48,40.39v79.89c22.49-17,48.59-32.61,77-42.13"
     id="path11585"
     style="fill:#8b262c;fill-opacity:1" />
  <metadata
     id="metadata11590">
    <rdf:RDF>
      <cc:Work
         rdf:about="">
        <dc:title>Artboard 1</dc:title>
      </cc:Work>
    </rdf:RDF>
  </metadata>
</svg>
