<?xml version="1.0" encoding="UTF-8" standalone="no"?>
<svg xmlns:dc="http://purl.org/dc/elements/1.1/" xmlns:cc="http://creativecommons.org/ns#" xmlns:rdf="http://www.w3.org/1999/02/22-rdf-syntax-ns#" xmlns:svg="http://www.w3.org/2000/svg" xmlns="http://www.w3.org/2000/svg" xmlns:sodipodi="http://sodipodi.sourceforge.net/DTD/sodipodi-0.dtd" xmlns:inkscape="http://www.inkscape.org/namespaces/inkscape" width="296.90799mm" height="135.68446mm" viewBox="0 0 296.90799 135.68446" version="1.1" id="svg8" inkscape:version="0.92.4 (5da689c313, 2019-01-14)">
<g inkscape:label="Ebene 1" inkscape:groupmode="layer" id="layer1" transform="translate(-0.04599922,-124.15778)">
<!-- LOGO -->
<path style="stroke-width:1.49037147" inkscape:connector-curvature="0" d="m 176.53881,131.20228 c -0.44711,-0.29509 -1.03134,-0.48289 -1.72735,-0.54102 a 6.5203916,6.5203916 0 0 0 -1.19976,0 c -1.30259,0.11625 -2.76463,0.53653 -4.35636,1.2549 -1.96133,0.87635 -3.85101,2.27729 -5.75733,4.27725 -2.58879,0.0149 -5.50545,0.62148 -8.69342,1.80933 -7.36388,2.74664 -10.72171,7.62317 -10.13751,10.82013 0.36962,2.06119 2.35778,3.00461 4.97337,2.27582 l -0.11475,-0.62447 c -1.37264,0.13115 -2.25494,-0.43818 -2.4919,-1.56787 -0.46649,-2.26536 1.79591,-6.70216 8.27458,-9.46388 2.36672,-1.00899 4.61724,-1.49037 6.60823,-1.46058 -2.24451,2.71251 -4.33705,5.98672 -6.36826,9.15379 -4.61433,7.22233 -9.39376,14.69072 -16.47454,16.68039 -0.41881,0.11923 -0.76756,0.2012 -1.09244,0.26081 a 17.173575,17.173575 0 0 1 -3.234,0.32788 h -0.003 c -3.37423,0 -5.81845,-1.26683 -6.8752,-3.574 -1.20721,-2.62157 -0.36962,-6.18807 2.13124,-9.08394 0.16991,-0.19374 0.3428,-0.386 0.52462,-0.57081 0.25337,-0.26379 0.52462,-0.50226 0.79735,-0.71239 1.26383,-0.98068 2.86147,-1.59173 4.182,-1.59173 0.8659,0 1.54403,0.2653 1.9032,0.74668 0.38751,0.5112 0.44265,1.28918 0.16842,2.25047 -0.0805,0.28318 -0.0149,0.45455 0.0507,0.54546 l 0.14904,0.155 h 0.16394 c 0.0969,0 0.28318,-0.0373 0.43518,-0.29509 0.83164,-1.43822 0.98365,-2.75881 0.42477,-3.71845 -0.48586,-0.84506 -1.45611,-1.31154 -2.72151,-1.31154 -1.59469,0 -3.49488,0.74221 -5.35331,2.08653 a 16.228748,16.228748 0 0 0 -1.40245,1.12821 c -2.56196,2.28028 -4.18201,4.83023 -4.74239,7.32975 -2.49788,-6.54711 -4.12089,-14.39862 -4.12089,-23.75376 l -0.003,-4.85564 c 0,-0.66024 0.45307,-1.21168 1.0686,-1.36368 l 0.0373,-0.0149 a 129.08756,129.08756 0 0 1 26.93458,-2.83475 c 9.22682,0 18.22582,0.98068 26.90548,2.82734 l 0.0179,0.0149 c 0.63788,0.13413 1.11778,0.69601 1.11778,1.37414 v 2.01647 z m -27.34204,53.83742 c -0.44712,0.24293 -0.87484,0.27572 -1.40097,0 -4.61724,-2.43827 -12.66533,-8.07482 -18.83833,-18.23932 1.33091,0.61106 2.86888,0.94639 4.55004,0.94639 1.085,0 2.22663,-0.13413 3.38905,-0.39645 h 0.003 l 0.16692,-0.0417 0.0492,-0.0149 h 0.004 0.0373 l 0.42177,-0.10134 h -0.003 a 20.352543,20.352543 0 0 0 2.87046,-0.99857 3.6364333,3.6364333 0 0 0 0.22952,-0.10879 l 0.0775,-0.0358 c 7.08369,-3.20278 11.77687,-10.76061 16.31659,-18.06946 2.24303,-3.61553 4.36986,-7.03447 6.68893,-9.77238 2.31307,0.48736 3.94944,1.83168 4.51591,3.70496 0.69302,2.29965 -0.3115,4.97946 -2.75722,7.34907 -1.45908,1.41586 -3.43535,2.29817 -5.15224,2.29817 -0.69302,0 -1.3145,-0.15202 -1.78101,-0.43519 -0.386,-0.23548 -0.82418,-0.18332 -0.99857,0.11625 -0.14158,0.23995 -0.0894,0.57081 0.14606,0.98364 0.44265,0.77946 1.29067,1.21169 2.36673,1.21169 1.19528,0 3.25808,-0.53208 6.32354,-3.06123 3.98515,-3.2893 5.81236,-7.01675 4.88844,-9.96474 -0.68556,-2.18191 -2.79294,-3.64093 -5.82745,-4.06268 1.4427,-1.40245 2.86015,-2.39503 4.30874,-3.0226 1.44418,-0.61999 2.75722,-0.89868 3.82588,-0.82865 0.39198,0.0283 0.75115,0.0984 1.06561,0.21313 0.91212,0.32787 1.4874,1.00153 1.63345,1.89725 l 0.13414,0.83013 0.0656,-0.10284 c -0.50225,31.2764 -19.21986,45.44219 -27.31822,49.72579 z m 26.4795,-58.01519 h -0.006 l -0.0939,-0.0238 a 130.20146,130.20146 0 0 0 -54.18931,0.0149 l -0.0343,0.0149 -0.0745,0.0224 c -0.94938,0.2325 -1.64539,1.12078 -1.64539,2.14614 l 0.003,4.85564 c 0,34.37731 21.25715,48.28116 27.77596,51.72075 0.36962,0.19971 0.73326,0.29808 1.10138,0.29808 0.36515,0 0.71686,-0.0969 1.08201,-0.2966 6.50399,-3.43826 27.77067,-17.34794 27.77067,-51.7234 v -4.85563 a 2.2355704,2.2355704 0 0 0 -1.68712,-2.15956 z" id="path976" />
<!-- J --><path style="stroke-width:1.49037147" inkscape:connector-curvature="0" d="m 8.5350149,205.37584 c 0,-5.19536 -0.4709583,-5.75733 -3.237177,-5.99281 l -1.1714427,-0.0924 c -0.2846652,-0.18778 -0.187788,-1.02835 0.092403,-1.16993 2.7244145,0.0924 4.3161479,0.14159 6.2864998,0.14159 1.87788,0 3.472656,-0.0492 5.350404,-0.14159 0.283184,0.14159 0.378566,0.98216 0.09538,1.16993 l -0.703447,0.0924 c -2.766219,0.37557 -2.86438,1.03134 -2.86438,5.99122 v 17.36302 c 0,3.69623 -0.186298,6.92441 -1.07606,9.07626 -1.5514903,3.74545 -4.8823563,6.74106 -9.2432187,6.74106 -0.5663406,0 -2.01797708,-0.0477 -2.01797708,-0.98364 0,-0.79439 0.70048437,-2.1521 1.68412578,-2.1521 0.564859,0 1.1297179,0.0924 1.739265,0.27871 0.6572515,0.19077 1.316011,0.32788 1.9702727,0.32788 0.9851496,0 1.5499821,-0.55891 1.8763721,-1.21317 1.077542,-2.20128 1.2206287,-9.22258 1.2206287,-11.74724 V 205.3742" id="path978" />
<!-- O --><path style="stroke-width:1.49037147" inkscape:connector-curvature="0" d="m 39.722775,216.47511 c 0,-6.51298 -2.891367,-13.54005 -10.4521,-13.54005 -4.117975,0 -9.460971,2.80352 -9.460971,11.44905 0,5.84067 2.85115,13.4239 10.650273,13.4239 4.7498,0 9.262798,-3.55309 9.262798,-11.3329 m -23.874412,-0.82717 c 0,-7.89596 5.942012,-13.93798 14.093031,-13.93798 9.146381,0 13.7414,6.595 13.7414,13.54296 0,7.97348 -6.097059,13.77844 -13.7414,13.77844 -8.785754,0 -14.093031,-6.27909 -14.093031,-13.38368" id="path974" />
<!-- H --><path style="stroke-width:1.49037147" inkscape:connector-curvature="0" d="m 52.674129,215.64961 c -1.898729,0 -1.979216,0.079 -1.979216,1.26383 v 5.56499 c 0,4.14469 0.198221,4.69767 2.414403,4.93315 l 1.147603,0.12072 c 0.238461,0.15649 0.15798,0.86741 -0.08048,0.98515 -1.675235,-0.0728 -3.351741,-0.11208 -5.028406,-0.11774 -1.699022,0 -3.044825,0.0805 -4.590256,0.11923 -0.236969,-0.11923 -0.314457,-0.75115 -0.0775,-0.98663 l 0.670666,-0.11923 c 2.216203,-0.39198 2.296662,-0.78989 2.296662,-4.93474 v -14.21368 c 0,-4.1447 -0.27424,-4.81542 -2.336905,-4.97338 l -1.028356,-0.0775 c -0.236969,-0.15947 -0.156491,-0.87188 0.08048,-0.98962 1.94048,0.0402 3.284802,0.11774 4.985279,0.11774 1.547018,0 2.891366,-0.0388 4.593431,-0.11774 0.238458,0.11774 0.318929,0.83013 0.0775,0.98962 l -0.74967,0.0775 c -2.295181,0.23846 -2.37416,0.82865 -2.37416,4.97338 v 4.54263 c 0,1.22211 0.08048,1.26235 1.979216,1.26235 h 11.320992 c 1.900237,0 1.980723,-0.0402 1.980723,-1.26235 v -4.54263 c 0,-4.1447 -0.08048,-4.73499 -2.414402,-4.97338 l -0.752634,-0.0775 c -0.238461,-0.15947 -0.159469,-0.87188 0.07899,-0.98962 1.596072,0.0764 3.193785,0.11566 4.791604,0.11774 1.541039,0 2.889779,-0.0388 4.670954,-0.11774 0.2325,0.11774 0.312975,0.83013 0.08048,0.98962 l -0.834602,0.0775 c -2.295181,0.23846 -2.375667,0.82865 -2.375667,4.97338 v 14.21368 c 0,4.14469 0.08048,4.65904 2.375667,4.93315 l 0.949378,0.12072 c 0.238461,0.15649 0.15798,0.86741 -0.0775,0.98515 -1.59512,-0.0752 -3.191669,-0.11447 -4.788694,-0.11774 -1.627505,0 -3.05091,0.0373 -4.791604,0.11923 -0.238461,-0.11923 -0.318929,-0.75115 -0.07899,-0.98663 l 0.752634,-0.11923 c 2.414402,-0.39198 2.414402,-0.78989 2.414402,-4.93474 v -5.56499 c 0,-1.18485 -0.08048,-1.26383 -1.980724,-1.26383 H 52.674439" id="path972" />
<!-- N --><path style="stroke-width:1.49037147" inkscape:connector-curvature="0" d="m 99.587399,221.6874 c 0,1.18634 0,5.88407 0.11625,6.91092 -0.07601,0.23399 -0.312975,0.4337 -0.748162,0.4337 -0.476912,-0.67066 -1.624515,-2.05375 -5.07021,-5.96 l -9.1821,-10.42511 c -1.067118,-1.22211 -3.763169,-4.46061 -4.594754,-5.32818 h -0.0775 c -0.159469,0.47395 -0.196728,1.38157 -0.196728,2.56344 v 8.60848 c 0,1.85404 0.03726,6.98685 0.712391,8.16875 0.238461,0.43817 1.028356,0.67514 2.017977,0.75263 l 1.2251,0.11923 c 0.239951,0.31597 0.201202,0.78989 -0.07601,0.98515 -1.543924,-0.0748 -3.089275,-0.11406 -4.634971,-0.11774 -1.658779,0 -2.727325,0.0402 -4.117975,0.11923 -0.277204,-0.19673 -0.312976,-0.75115 -0.07452,-0.98663 l 1.068599,-0.11923 c 0.912125,-0.11923 1.541039,-0.35174 1.743737,-0.78989 0.551444,-1.42182 0.514191,-6.2357 0.514191,-8.13144 v -11.40883 c 0,-1.10585 -0.04173,-1.93749 -0.874845,-2.84374 -0.554408,-0.55145 -1.500823,-0.82865 -2.453164,-0.94787 l -0.670666,-0.0775 c -0.238461,-0.23846 -0.238461,-0.83013 0.0775,-0.98962 1.663276,0.11774 3.761845,0.11774 4.472516,0.11774 0.633413,0 1.30855,-0.0387 1.822741,-0.11774 0.792877,2.01499 5.463646,7.22842 6.76619,8.686 l 3.842279,4.30134 c 2.7305,3.04191 4.669366,5.25356 6.53071,7.14798 h 0.08048 c 0.15798,-0.19524 0.15798,-0.82865 0.15798,-1.6573 v -8.45052 c 0,-1.85254 -0.03875,-6.98553 -0.791395,-8.16875 -0.238458,-0.35769 -0.870373,-0.59465 -2.454645,-0.7914 l -0.670666,-0.0775 c -0.277204,-0.23847 -0.238459,-0.87189 0.07452,-0.98963 1.824222,0.079 3.16865,0.11774 4.673864,0.11774 1.700537,0 2.731827,-0.0387 4.077757,-0.11774 0.31597,0.19822 0.31597,0.75264 0.0805,0.98963 l -0.55739,0.0775 c -1.26384,0.19673 -2.05672,0.5142 -2.22068,0.82865 -0.666194,1.4233 -0.588698,6.31614 -0.588698,8.13303 v 9.43398" id="path970" />
<!-- S --><path style="stroke-width:1.49037147" inkscape:connector-curvature="0" d="m 141.98159,213.28423 c -2.25346,0 -2.34736,0.0924 -2.34736,1.49636 v 6.59791 c 0,4.91516 0.23697,5.57107 2.86147,5.85126 l 1.36369,0.1401 c 0.28019,0.18629 0.18629,1.02835 -0.0924,1.16993 -1.98551,-0.0876 -3.97271,-0.13484 -5.96,-0.14158 -2.01946,0 -3.61553,0.0939 -5.44274,0.14158 -0.28316,-0.14158 -0.37857,-0.88826 -0.0939,-1.16993 l 0.79587,-0.1401 c 2.62752,-0.46649 2.7215,-0.93596 2.7215,-5.85126 v -16.84734 c 0,-4.91384 -0.33086,-5.70812 -2.76754,-5.8973 l -1.22063,-0.0924 c -0.28019,-0.18779 -0.18927,-1.02836 0.0939,-1.16994 2.29817,0.0462 3.8944,0.14159 5.9137,0.14159 1.81467,-0.004 3.62903,-0.0508 5.44142,-0.14159 0.28319,0.14159 0.37706,0.98364 0.0924,1.16994 l -0.89274,0.0924 c -2.71991,0.28316 -2.81384,0.98364 -2.81384,5.8973 v 5.38321 c 0,1.45164 0.0939,1.49635 2.34736,1.49635 h 13.42072 c 2.25346,0 2.34437,-0.0447 2.34437,-1.49635 v -5.38321 c 0,-4.91384 -0.0909,-5.6142 -2.86147,-5.8973 l -0.89125,-0.0924 c -0.28318,-0.18779 -0.18779,-1.02836 0.0954,-1.16994 2.15361,0.0924 3.75285,0.14159 5.67823,0.14159 1.82721,0 3.42344,-0.0492 5.53667,-0.14159 0.27871,0.14159 0.37409,0.98364 0.0894,1.16994 l -0.98364,0.0924 c -2.71992,0.28316 -2.81675,0.98364 -2.81675,5.8973 v 16.84734 c 0,4.91516 0.0969,5.52344 2.81675,5.85126 l 1.12673,0.1401 c 0.28316,0.18629 0.18629,1.02835 -0.0954,1.16993 -1.89044,-0.0906 -3.78274,-0.13778 -5.67531,-0.14158 -1.92408,0 -3.61421,0.0447 -5.67822,0.14158 -0.28316,-0.14158 -0.37706,-0.88826 -0.0939,-1.16993 l 0.88974,-0.1401 c 2.86146,-0.46649 2.86146,-0.93596 2.86146,-5.85126 v -6.59791 c 0,-1.40394 -0.0894,-1.49636 -2.34288,-1.49636 h -13.42073" id="path980" />
<!-- H --><path style="stroke-width:1.49037147" inkscape:connector-curvature="0" d="m 110.05432,229.03223 c -3.32793,0 -5.42502,-1.02687 -6.17908,-1.46057 -0.47096,-0.8689 -0.98663,-3.67242 -1.07008,-5.52794 0.20269,-0.27573 0.79438,-0.35769 0.95385,-0.11923 0.59316,2.01199 2.2162,5.88407 6.80667,5.88407 3.3266,0 4.95114,-2.17297 4.95114,-4.54264 0,-1.7363 -0.3562,-3.67083 -3.24908,-5.52476 l -3.75867,-2.45017 c -1.98221,-1.3026 -4.27434,-3.55468 -4.27434,-6.79027 0,-3.74968 2.92708,-6.79027 8.0719,-6.79027 1.22958,0 2.65589,0.23846 3.68433,0.51269 0.51419,0.15947 1.06711,0.23845 1.38157,0.23845 0.35769,0.94787 0.71538,3.15807 0.71538,4.81701 -0.15798,0.23846 -0.78988,0.35174 -0.98962,0.11774 -0.51419,-1.89577 -1.5798,-4.46061 -5.38321,-4.46061 -3.878,0 -4.70958,2.56495 -4.70958,4.38176 0,2.28923 1.90023,3.94944 3.36232,4.85722 l 3.16865,1.97178 c 2.4964,1.54104 4.94797,3.83038 4.94797,7.58005 0,4.34287 -3.2848,7.30594 -8.42962,7.30594" id="path968" />
<!-- O --><path style="stroke-width:1.49037147" inkscape:connector-curvature="0" d="m 189.11181,216.47511 c 0,-6.51298 -2.89136,-13.54005 -10.45342,-13.54005 -4.11506,0 -9.45938,2.80352 -9.45938,11.44905 0,5.84067 2.84956,13.4239 10.64868,13.4239 4.75271,0 9.26412,-3.55309 9.26412,-11.3329 m -23.87282,-0.82717 c 0,-7.89596 5.9391,-13.93798 14.09462,-13.93798 9.14347,0 13.73531,6.595 13.73531,13.54296 0,7.97348 -6.09573,13.77844 -13.73531,13.77844 -8.78867,0 -14.09462,-6.27909 -14.09462,-13.38368" id="path966" />
<!-- P --><path style="stroke-width:1.49037147" inkscape:connector-curvature="0" d="m 200.23754,222.47851 c 0,4.14469 0.079,4.65904 2.60816,4.93315 l 1.07307,0.12072 c 0.23548,0.19673 0.15798,0.86741 -0.079,0.98515 -1.715,-0.0721 -3.43112,-0.11139 -5.14773,-0.11774 -1.66328,0 -3.08505,0.0373 -4.82891,0.11923 -0.23697,-0.11923 -0.31597,-0.75115 -0.079,-0.98663 l 0.83013,-0.11923 c 2.29817,-0.31448 2.37566,-0.78989 2.37566,-4.93474 v -14.5669 c 0,-3.35783 -0.0775,-4.02855 -1.85999,-4.22381 l -1.42481,-0.15947 c -0.2772,-0.23846 -0.23846,-0.83014 0.079,-0.98812 2.09847,-0.27572 4.55163,-0.31744 7.83934,-0.31744 3.28322,0 5.73935,0.43666 7.59804,1.58279 1.82124,1.14461 3.16707,3.19696 3.16707,5.92269 0,3.63194 -2.25346,5.44592 -3.95844,6.27592 -1.74225,0.83013 -3.83778,1.18486 -5.46232,1.18486 -0.27572,-0.11923 -0.27572,-0.71239 -0.0402,-0.78989 4.27593,-0.78989 5.82004,-3.19696 5.82004,-6.63522 0,-3.82879 -2.25494,-6.31481 -6.37275,-6.31481 -2.09548,0 -2.1372,0.15798 -2.1372,1.42182 v 17.60722" id="path964" />
<!-- K --><path style="stroke-width:1.49037147" inkscape:connector-curvature="0" d="m 216.70786,208.26244 c 0,-4.14469 -0.0805,-4.77678 -2.37715,-4.97337 l -0.98962,-0.0775 c -0.23846,-0.15947 -0.15798,-0.87188 0.0775,-0.98962 1.94048,0.079 3.20886,0.11774 4.98977,0.11774 1.53234,-0.002 3.06441,-0.0411 4.59476,-0.11774 0.23548,0.11774 0.31297,0.83013 0.0775,0.98962 l -0.75116,0.0775 c -2.29965,0.23846 -2.37865,0.82865 -2.37865,4.97337 v 4.54263 c 0,0.74967 0.079,1.50083 0.51866,1.50083 0.35322,0 0.83013,-0.23846 1.10585,-0.43667 0.55441,-0.47244 1.58576,-1.50082 2.01946,-1.89577 l 4.27302,-4.22222 c 0.75263,-0.71091 2.69452,-2.72441 3.08795,-3.27871 0.19971,-0.27425 0.27872,-0.47395 0.27872,-0.63342 0,-0.15351 -0.15798,-0.27424 -0.67215,-0.39198 l -1.06712,-0.23548 c -0.27871,-0.2772 -0.23846,-0.79139 0.0775,-0.98962 1.38308,0.079 2.96598,0.11774 4.35478,0.11774 1.38605,0 2.72891,-0.0387 3.9198,-0.11774 0.27422,0.19822 0.31298,0.75264 0.0775,0.98962 -1.02836,0.0775 -2.57238,0.47395 -3.68274,1.10289 -1.10585,0.63341 -3.32343,2.48894 -5.54116,4.58153 l -3.56209,3.35333 c -0.55441,0.55591 -0.91062,0.90913 -0.91062,1.22658 0,0.27424 0.23847,0.59169 0.75264,1.22211 3.76026,4.30265 6.80799,7.85865 9.89621,11.09424 0.95086,0.94639 1.82274,1.46058 3.16997,1.61856 l 1.06561,0.11923 c 0.27871,0.19673 0.19822,0.86741 -0.079,0.98515 -1.02836,-0.0805 -2.57239,-0.11774 -4.43389,-0.11774 -1.62152,0 -3.0091,0.0373 -4.82891,0.11923 -0.27572,-0.082 -0.39645,-0.75115 -0.15947,-0.98663 l 0.91062,-0.15947 c 0.5544,-0.079 0.95086,-0.19673 0.95086,-0.39346 0,-0.23846 -0.27721,-0.55144 -0.55441,-0.90913 -0.75414,-0.94787 -1.78102,-2.012 -3.28639,-3.71105 l -3.16706,-3.55309 c -2.25642,-2.52471 -2.88978,-3.31602 -3.83911,-3.31602 -0.59616,0 -0.67514,0.51419 -0.67514,1.89724 v 5.09112 c 0,4.14469 0.079,4.69767 2.29817,4.93315 l 1.0686,0.12072 c 0.23548,0.15649 0.15947,0.86741 -0.079,0.98515 -1.60853,-0.0748 -3.21865,-0.11402 -4.82891,-0.11774 -1.62451,0 -2.97021,0.0373 -4.59184,0.11923 -0.23846,-0.11923 -0.32044,-0.70943 -0.0805,-0.98663 l 0.79139,-0.11923 c 2.09847,-0.31448 2.17893,-0.78989 2.17893,-4.93474 V 208.2625" id="path962" />
<!-- I --><path style="stroke-width:1.49037147" inkscape:connector-curvature="0" d="m 243.87792,208.34446 c 0,-4.1865 -0.079,-4.85722 -2.4144,-5.0538 l -0.99111,-0.0775 c -0.23846,-0.15947 -0.15798,-0.87188 0.0805,-0.98962 1.97922,0.079 3.32343,0.11774 4.98687,0.11774 1.63758,-0.004 3.27501,-0.0437 4.91066,-0.11774 0.23847,0.11774 0.31597,0.83013 0.0775,0.98962 l -0.98962,0.0775 c -2.33542,0.19673 -2.41591,0.86741 -2.41591,5.0538 v 14.05414 c 0,4.1865 0.0805,4.73948 2.41591,5.01359 l 0.98962,0.11923 c 0.23846,0.15649 0.16097,0.86741 -0.0775,0.98515 -1.63589,-0.0748 -3.27316,-0.1141 -4.91066,-0.11774 -1.66177,0 -3.00752,0.0373 -4.98687,0.11923 -0.23846,-0.11923 -0.31893,-0.75115 -0.0805,-0.98663 l 0.98962,-0.11923 c 2.33691,-0.27572 2.41441,-0.82717 2.41441,-5.01359 v -14.05414" id="path960" />
<!-- N --><path style="stroke-width:1.49037147" inkscape:connector-curvature="0" d="m 278.12294,221.6874 c 0,1.18634 0,5.88407 0.12073,6.91092 -0.0805,0.23399 -0.31446,0.4337 -0.75264,0.4337 -0.47394,-0.67066 -1.62303,-2.05375 -5.0673,-5.96 l -9.1821,-10.42511 c -1.07008,-1.22211 -3.76475,-4.46061 -4.59343,-5.32818 h -0.0775 c -0.16096,0.47395 -0.2012,1.38157 -0.2012,2.56344 v 8.60848 c 0,1.85404 0.0402,6.98685 0.7139,8.16875 0.23846,0.43817 1.02836,0.67514 2.02094,0.75263 l 1.2251,0.11923 c 0.23846,0.31597 0.19822,0.78989 -0.079,0.98515 -1.54393,-0.0748 -3.08928,-0.11405 -4.63498,-0.11774 -1.65729,0 -2.7305,0.0402 -4.11347,0.11923 -0.27721,-0.19673 -0.31745,-0.75115 -0.0805,-0.98663 l 1.07159,-0.11923 c 0.90913,-0.11923 1.54254,-0.35174 1.73926,-0.78989 0.55441,-1.42182 0.51567,-6.2357 0.51567,-8.13144 v -11.40883 c 0,-1.10585 -0.0387,-1.93749 -0.87037,-2.84374 -0.55592,-0.55145 -1.50527,-0.82865 -2.45615,-0.94787 l -0.67215,-0.0775 c -0.23846,-0.23846 -0.23846,-0.83013 0.0805,-0.98962 1.66325,0.11774 3.75867,0.11774 4.47119,0.11774 0.6349,0 1.30707,-0.0387 1.81975,-0.11774 0.79439,2.01499 5.46524,7.22842 6.76937,8.686 l 3.84228,4.30134 c 2.7305,3.04191 4.66936,5.25356 6.53097,7.14798 h 0.0805 c 0.15798,-0.19524 0.15798,-0.82865 0.15798,-1.6573 v -8.45052 c 0,-1.85254 -0.0402,-6.98553 -0.79139,-8.16875 -0.23548,-0.35769 -0.87038,-0.59465 -2.45317,-0.7914 l -0.67214,-0.0775 c -0.27872,-0.23847 -0.23847,-0.87189 0.0745,-0.98963 1.82423,0.079 3.16998,0.11774 4.67387,0.11774 1.36014,0.006 2.72018,-0.0337 4.07776,-0.11774 0.31892,0.19822 0.31892,0.75264 0.079,0.98963 l -0.5544,0.0775 c -1.26683,0.19673 -2.05822,0.5142 -2.21769,0.82865 -0.67066,1.4233 -0.59468,6.31614 -0.59468,8.13303 v 9.43398" id="path958" />
<!-- S --><path style="stroke-width:1.49037147" inkscape:connector-curvature="0" d="m 288.52106,229.03223 c -3.3266,0 -5.42343,-1.02687 -6.17749,-1.46057 -0.47395,-0.8689 -0.98962,-3.67242 -1.0686,-5.52794 0.19823,-0.27573 0.79587,-0.35769 0.94935,-0.11923 0.59616,2.01199 2.21769,5.88407 6.808,5.88407 3.32793,0 4.95115,-2.17297 4.95115,-4.54264 0,-1.7363 -0.35769,-3.67083 -3.24909,-5.52476 l -3.75867,-2.45017 c -7.50993,-4.98714 -2.55476,-13.43819 3.80048,-13.58027 1.22806,0 2.65139,0.23846 3.68114,0.51268 0.51568,0.15947 1.07009,0.23846 1.38605,0.23846 0.35769,0.94787 0.71239,3.15807 0.71239,4.817 -0.15798,0.23846 -0.78989,0.35174 -0.9911,0.11774 -0.51268,-1.89576 -1.58128,-4.46061 -5.3803,-4.46061 -3.87932,0 -4.7125,2.56495 -4.7125,4.38177 0,2.28922 1.90024,3.94943 3.36392,4.85722 l 3.16865,1.97178 c 2.49488,1.54104 4.94956,3.83037 4.94956,7.58005 0,4.34287 -3.28772,7.30594 -8.43413,7.30594" id="path956" />
<!-- P --><path style="stroke-width:1.49037147" inkscape:connector-curvature="0" d="m 42.209858,256.4563 c 0,2.14018 0.04173,2.40845 1.351783,2.55002 l 0.551445,0.0626 c 0.125192,0.0999 0.08495,0.44712 -0.04024,0.50821 -0.885851,-0.0358 -1.772258,-0.0557 -2.658798,-0.0596 -0.859949,0 -1.597686,0.0209 -2.497878,0.0596 -0.122211,-0.0596 -0.163941,-0.38751 -0.04024,-0.50821 l 0.432224,-0.0626 c 1.183349,-0.16394 1.2251,-0.40986 1.2251,-2.54854 v -7.53242 c 0,-1.7348 -0.04173,-2.08206 -0.961284,-2.1834 l -0.736256,-0.0805 c -0.143076,-0.1237 -0.123701,-0.43072 0.04024,-0.51268 1.086485,-0.14159 2.354792,-0.16245 4.052358,-0.16245 1.697567,0 2.96598,0.22504 3.927211,0.81822 0.943398,0.59018 1.639411,1.65134 1.639411,3.05964 0,1.87788 -1.166971,2.81676 -2.047769,3.24459 -0.901674,0.42772 -1.982205,0.61105 -2.824163,0.61105 -0.141586,-0.0596 -0.141586,-0.36515 -0.01788,-0.40687 2.208741,-0.40836 3.004608,-1.65434 3.004608,-3.42795 0,-1.98072 -1.16549,-3.26548 -3.293798,-3.26548 -1.082013,0 -1.105852,0.0805 -1.105852,0.73474 v 9.10167" id="path954" />
<!-- E --><path style="stroke-width:1.49037147" inkscape:connector-curvature="0" d="m 52.539191,249.10617 c 0,-2.1223 -0.04173,-2.42932 -1.248939,-2.56942 l -0.32639,-0.0432 c -0.1237,-0.0805 -0.08197,-0.44712 0.04173,-0.50972 0.879317,0.0417 1.57533,0.0626 2.412921,0.0626 h 3.8481 c 1.310031,0 2.517246,0 2.763044,-0.0626 0.122211,0.34727 0.244422,1.81676 0.32639,2.7141 -0.08197,0.1237 -0.40984,0.16394 -0.511202,0.0417 -0.307022,-0.95981 -0.491834,-1.6737 -1.555961,-1.93749 -0.429234,-0.10433 -1.083496,-0.1237 -1.983687,-0.1237 h -1.473994 c -0.614045,0 -0.614045,0.0402 -0.614045,0.81523 v 4.08226 c 0,0.57229 0.0626,0.57229 0.675137,0.57229 h 1.186339 c 0.859949,0 1.494843,-0.0417 1.740773,-0.1237 0.245912,-0.0805 0.387509,-0.20418 0.491834,-0.71538 l 0.163941,-0.8346 c 0.101346,-0.12371 0.448601,-0.12371 0.530569,0.0194 0,0.49184 -0.08197,1.28768 -0.08197,2.06119 0,0.73625 0.08197,1.51124 0.08197,1.95985 -0.08197,0.14307 -0.429234,0.14307 -0.532077,0.0194 l -0.184806,-0.79586 c -0.08048,-0.36664 -0.223557,-0.67215 -0.633413,-0.77499 -0.286147,-0.082 -0.777981,-0.10135 -1.576811,-0.10135 h -1.186338 c -0.612537,0 -0.675138,0.0194 -0.675138,0.55144 v 2.87655 c 0,1.08054 0.0626,1.77356 0.387509,2.12231 0.247404,0.24442 0.675137,0.46796 2.477003,0.46796 1.575329,0 2.168498,-0.082 2.620089,-0.30403 0.366633,-0.20418 0.919559,-0.91956 1.453118,-1.98072 0.143076,-0.10135 0.427726,-0.0402 0.511202,0.14307 -0.144566,0.71538 -0.65577,2.28476 -0.921041,2.83607 -1.827927,-0.0395 -3.656277,-0.0594 -5.484548,-0.0596 h -1.842109 c -0.879316,0 -1.575329,0.0209 -2.782623,0.0596 -0.122211,-0.0596 -0.163941,-0.38751 -0.04173,-0.50821 l 0.676619,-0.0626 c 1.16549,-0.10135 1.268307,-0.40987 1.268307,-2.54855 v -7.34907" id="path952" />
<!-- A --><path style="stroke-width:1.49037147" inkscape:connector-curvature="0" d="m 67.165358,252.9638 c -0.163941,0.46947 -0.144568,0.48884 0.427725,0.48884 h 2.518728 c 0.593169,0 0.633412,-0.0805 0.450083,-0.63193 l -1.105853,-3.32661 c -0.163941,-0.49032 -0.348747,-1.04028 -0.469477,-1.28619 h -0.04173 c -0.0611,0.10433 -0.265297,0.59317 -0.490326,1.20423 z m 4.050771,1.81528 c -0.141584,-0.44712 -0.223557,-0.50822 -0.837592,-0.50822 H 67.28741 c -0.512683,0 -0.633412,0.0596 -0.777981,0.48737 l -0.71538,2.14466 c -0.307022,0.91956 -0.450083,1.46952 -0.450083,1.69158 0,0.24741 0.101344,0.36664 0.59317,0.40987 l 0.675137,0.0626 c 0.143076,0.0984 0.143076,0.42624 -0.04173,0.50821 -0.530569,-0.0387 -1.165463,-0.0387 -2.126774,-0.0596 -0.676645,0 -1.412875,0.0387 -1.965801,0.0596 -0.123701,-0.082 -0.163941,-0.40987 -0.04024,-0.50821 l 0.673656,-0.0626 c 0.491834,-0.0432 0.941916,-0.26678 1.229571,-1.00153 0.368115,-0.93596 0.941917,-2.26536 1.800384,-4.55004 l 2.086531,-5.50836 c 0.287655,-0.73475 0.409866,-1.12225 0.348747,-1.45013 0.491834,-0.14456 0.839073,-0.50972 1.064128,-0.77499 0.123703,0 0.265297,0.0417 0.307022,0.18481 0.265298,0.89868 0.59317,1.83616 0.900192,2.73341 l 2.804848,8.20446 c 0.591688,1.75268 0.858467,2.06119 1.737783,2.16255 l 0.551445,0.0626 c 0.144568,0.0984 0.104328,0.42624 0,0.50821 -0.824045,-0.0406 -1.648989,-0.0605 -2.474013,-0.0596 -0.98216,0 -1.760141,0.0387 -2.354792,0.0596 -0.163941,-0.082 -0.183316,-0.40987 -0.03875,-0.50821 l 0.591688,-0.0626 c 0.430715,-0.0432 0.716862,-0.16394 0.716862,-0.36663 0,-0.22505 -0.104325,-0.59169 -0.26678,-1.08202 z" id="path950" />
<!-- B --><path style="stroke-width:1.49037147" inkscape:connector-curvature="0" d="m 80.950149,256.14673 c 0,0.73327 0.04173,1.77356 0.430716,2.22515 0.38899,0.46948 1.003035,0.56933 1.615572,0.56933 1.821233,0 3.211777,-0.81523 3.211777,-2.85565 0,-1.61258 -0.818224,-3.48747 -4.07035,-3.48747 -1.105852,0 -1.18782,0.11923 -1.18782,0.52761 z m 0,-4.73498 c 0,0.57229 0.02088,0.61254 1.064128,0.57229 2.088012,-0.082 3.213365,-0.69302 3.213365,-2.61114 0,-2.00009 -1.494843,-2.75564 -3.049323,-2.75564 -0.450083,0 -0.757105,0.0417 -0.940435,0.12221 -0.205671,0.0626 -0.287655,0.16246 -0.287655,0.53208 z m -1.678172,-2.71251 c 0,-1.51124 -0.08197,-1.89725 -1.003036,-1.98072 l -0.654288,-0.0596 c -0.163941,-0.1237 -0.143076,-0.43071 0.01937,-0.51268 1.105852,-0.0999 2.497878,-0.16245 4.401079,-0.16245 1.289182,0 2.518727,0.10134 3.43826,0.57229 0.879316,0.42773 1.554454,1.24447 1.554454,2.54855 0,1.471 -0.858467,2.22514 -2.086531,2.79744 0,0.20418 0.163941,0.2653 0.387509,0.30702 1.105852,0.20269 2.742406,1.22211 2.742406,3.40836 0,2.36522 -1.76014,3.95685 -5.441421,3.95685 -0.594651,0 -1.597686,-0.0596 -2.456153,-0.0596 -0.901674,0 -1.597687,0.0387 -2.354792,0.0596 -0.122211,-0.0596 -0.163941,-0.38751 -0.04024,-0.50822 l 0.369623,-0.0626 c 1.083495,-0.18481 1.123738,-0.40987 1.123738,-2.54855 v -7.75732 z" id="path948" />
<!-- O --><path style="stroke-width:1.49037147" inkscape:connector-curvature="0" d="m 103.33125,253.35273 c 0,-3.36814 -1.49484,-7.00166 -5.402524,-7.00166 -2.128255,0 -4.891352,1.45012 -4.891352,5.9182 0,3.02101 1.473994,6.93922 5.50545,6.93922 2.453166,0 4.788696,-1.83763 4.788696,-5.85708 m -12.340433,-0.42772 c 0,-4.08226 3.070225,-7.20461 7.285037,-7.20461 4.725986,0 7.100096,3.40836 7.100096,7.00035 0,4.12247 -3.15066,7.12099 -7.100096,7.12099 -4.542631,0 -7.28345,-3.24458 -7.28345,-6.91673" id="path946" />
<!-- D --><path style="stroke-width:1.49037147" inkscape:connector-curvature="0" d="m 111.63123,255.98534 c 0,1.08201 0.0626,1.73331 0.40836,2.22364 0.45008,0.63341 1.22957,0.83759 2.51873,0.83759 3.96875,0 5.74834,-2.59178 5.74834,-6.38625 0,-2.24748 -1.0835,-6.04203 -6.44446,-6.04203 -1.20722,0 -1.86299,0.16395 -2.02692,0.28319 -0.16394,0.12519 -0.20418,0.63489 -0.20418,1.55297 z m -1.67817,-7.28636 c 0,-1.42777 -0.10135,-1.85701 -0.96128,-1.97922 l -0.45009,-0.0596 c -0.16394,-0.10135 -0.1848,-0.43072 0.0194,-0.5112 1.74075,-0.10135 3.39804,-0.16395 5.13741,-0.16395 1.71842,0 3.17157,0.1237 4.50083,0.61405 2.76305,0.99856 4.1537,3.32502 4.1537,6.01821 0,2.59326 -1.24746,4.81383 -3.57982,6.08066 -1.3309,0.71538 -3.0091,0.98216 -4.58443,0.98216 -1.30855,0 -2.61858,-0.16395 -3.33402,-0.16395 -0.85995,0 -1.59768,0.0209 -2.55897,0.0596 -0.12221,-0.0596 -0.16394,-0.38751 -0.0417,-0.50821 l 0.47244,-0.0626 c 1.18634,-0.16394 1.22658,-0.40986 1.22658,-2.54854 v -7.75891 z" id="path944" />
<!-- Y --><path style="stroke-width:1.49037147" inkscape:connector-curvature="0" d="m 130.94052,256.41396 c 0,2.18192 0.12221,2.5113 1.22807,2.59326 l 0.77499,0.0611 c 0.1237,0.11923 0.0849,0.44712 -0.0402,0.50821 -0.92713,-0.0349 -1.85476,-0.0548 -2.78262,-0.0596 -0.85995,0 -1.5947,0.0209 -2.68129,0.0596 -0.12221,-0.0596 -0.16394,-0.38751 -0.0402,-0.50821 l 0.63341,-0.0626 c 1.18782,-0.1237 1.22806,-0.40986 1.22806,-2.59326 v -1.0388 c 0,-1.12226 -0.0611,-1.38753 -0.65577,-2.53215 l -2.41144,-4.69317 c -0.69601,-1.34433 -1.00152,-1.44865 -1.61557,-1.54999 l -0.57528,-0.10283 c -0.12221,-0.14308 -0.10433,-0.42773 0.0402,-0.50972 0.65577,0.0417 1.39351,0.0626 2.37416,0.0626 0.9434,0 1.67666,-0.0209 2.18937,-0.0626 0.18481,0.0626 0.18481,0.38751 0.0626,0.50972 l -0.26826,0.0417 c -0.71538,0.10134 -0.85847,0.20418 -0.85847,0.36663 0,0.20418 0.53356,1.36816 0.6364,1.57234 0.75711,1.50977 1.51421,3.12235 2.31008,4.53073 0.63341,-1.08202 1.31154,-2.26537 1.92556,-3.45017 0.57081,-1.06114 1.32791,-2.44869 1.32791,-2.69319 0,-0.12222 -0.36663,-0.2638 -0.85994,-0.32788 l -0.36516,-0.0402 c -0.14456,-0.14307 -0.12519,-0.42772 0.0387,-0.50972 1.28786,0.0821 2.57966,0.0821 3.86742,0 0.16394,0.10135 0.18331,0.38751 0.0417,0.50972 l -0.57381,0.10433 c -1.06412,0.18183 -1.67965,1.46801 -2.70192,3.22209 l -1.28767,2.22515 c -0.89869,1.54998 -0.96129,1.73479 -0.96129,3.30703 v 1.05817" id="path942" />
<!-- I --><path style="stroke-width:1.49037147" inkscape:connector-curvature="0" d="m 145.58257,249.14851 c 0,-2.16403 -0.0403,-2.5113 -1.24595,-2.61263 l -0.51121,-0.0417 c -0.1237,-0.0805 -0.0849,-0.44712 0.0388,-0.50972 0.85889,0.0395 1.71854,0.0603 2.57836,0.0626 0.81822,0 1.51421,-0.0209 2.53661,-0.0626 0.12371,0.0626 0.16693,0.42923 0.0417,0.50972 l -0.50969,0.0417 c -1.2087,0.10134 -1.25042,0.4486 -1.25042,2.61263 v 7.26413 c 0,2.16403 0.0417,2.45017 1.25042,2.59326 l 0.50969,0.0611 c 0.1252,0.079 0.082,0.44712 -0.0417,0.50821 -0.84505,-0.0372 -1.69076,-0.0571 -2.53661,-0.0596 -0.85995,0 -1.55445,0.0209 -2.57836,0.0596 -0.12371,-0.0596 -0.16395,-0.38751 -0.0388,-0.50821 l 0.51121,-0.0626 c 1.2057,-0.14159 1.24595,-0.42772 1.24595,-2.59326 v -7.26255" id="path940" />
<!-- N --><path style="stroke-width:1.49037147" inkscape:connector-curvature="0" d="m 164.52938,256.04619 c 0,0.61405 0,3.04033 0.0596,3.57399 -0.0402,0.12073 -0.16245,0.22207 -0.38751,0.22207 -0.24591,-0.34726 -0.84058,-1.05965 -2.61858,-3.08054 l -4.74821,-5.38771 c -0.55293,-0.63193 -1.94344,-2.30561 -2.37416,-2.75431 h -0.0402 c -0.082,0.24293 -0.10134,0.71538 -0.10134,1.32643 v 4.4487 c 0,0.95981 0.0194,3.6113 0.36811,4.22381 0.12221,0.22356 0.53057,0.34727 1.04325,0.38751 l 0.6349,0.0626 c 0.12221,0.16096 0.10135,0.40835 -0.0417,0.50821 -0.7973,-0.0376 -1.59536,-0.0575 -2.39355,-0.0596 -0.85995,0 -1.4114,0.0209 -2.12826,0.0596 -0.14308,-0.0999 -0.16394,-0.38751 -0.0402,-0.50821 l 0.55144,-0.0626 c 0.47244,-0.0626 0.79883,-0.18481 0.9002,-0.40986 0.28614,-0.73327 0.26826,-3.2221 0.26826,-4.20132 v -5.89889 c 0,-0.57081 -0.0224,-0.99856 -0.45307,-1.46801 -0.28615,-0.28615 -0.775,-0.42773 -1.26683,-0.49184 l -0.34727,-0.0402 c -0.1237,-0.12072 -0.1237,-0.42772 0.0388,-0.50972 0.85994,0.0626 1.94344,0.0626 2.31306,0.0626 0.32787,0 0.67665,-0.0209 0.94192,-0.0626 0.40688,1.04177 2.82416,3.73486 3.49779,4.49051 l 1.98517,2.22364 c 1.41139,1.57234 2.4144,2.71542 3.37582,3.69305 h 0.0402 c 0.082,-0.10134 0.082,-0.42772 0.082,-0.85696 v -4.36668 c 0,-0.9598 -0.0194,-3.6113 -0.40836,-4.22381 -0.1237,-0.18331 -0.45008,-0.30702 -1.26831,-0.40836 l -0.34875,-0.0417 c -0.14158,-0.12072 -0.1237,-0.44711 0.0417,-0.50971 0.93896,0.0417 1.63645,0.0626 2.41441,0.0626 0.70297,0.003 1.40583,-0.0181 2.1074,-0.0626 0.16544,0.10134 0.16544,0.3875 0.0402,0.50971 l -0.28466,0.0417 c -0.65577,0.10135 -1.06561,0.26678 -1.14761,0.42924 -0.34726,0.73326 -0.30554,3.2639 -0.30554,4.2029 v 4.87654" id="path938" />
<!-- S --><path style="stroke-width:1.49037147" inkscape:connector-curvature="0" d="m 172.52244,259.84032 c -1.71842,0 -2.80194,-0.53057 -3.18929,-0.75563 -0.2474,-0.44712 -0.51419,-1.89576 -0.55292,-2.85564 0.0999,-0.14308 0.40835,-0.18481 0.48884,-0.0596 0.30702,1.04029 1.1476,3.03901 3.52028,3.03901 1.7199,0 2.55897,-1.12226 2.55897,-2.34585 0,-0.89869 -0.1848,-1.90024 -1.67817,-2.85856 l -1.94495,-1.26384 c -1.02241,-0.67365 -2.21023,-1.83763 -2.21023,-3.50996 0,-1.94048 1.51421,-3.51128 4.17301,-3.51128 0.63789,0 1.37263,0.1237 1.90619,0.26529 0.2653,0.082 0.55145,0.12371 0.71538,0.12371 0.18481,0.49032 0.36812,1.63195 0.36812,2.48893 -0.0805,0.1237 -0.40987,0.18332 -0.51268,0.0596 -0.2638,-0.97769 -0.81672,-2.30561 -2.78104,-2.30561 -2.00604,0 -2.43528,1.32644 -2.43528,2.26687 0,1.18187 0.98216,2.04034 1.73927,2.5083 l 1.63793,1.02241 c 1.28767,0.79586 2.55749,1.97921 2.55749,3.91662 0,2.246 -1.69903,3.77508 -4.36087,3.77508" id="path936" />
<!-- T --><path style="stroke-width:1.49037147" inkscape:connector-curvature="0" d="m 186.49244,256.4563 c 0,2.14018 0.0417,2.44869 1.22806,2.55002 l 0.65577,0.0626 c 0.12072,0.079 0.082,0.44712 -0.0417,0.50821 -0.89331,-0.0355 -1.78718,-0.0554 -2.68128,-0.0596 -0.81823,0 -1.53509,0.0209 -2.84375,0.0596 -0.12221,-0.0596 -0.16394,-0.40836 0,-0.50821 l 0.73626,-0.0626 c 1.16549,-0.10134 1.26979,-0.40986 1.26979,-2.54854 v -9.12416 c 0,-0.63341 0,-0.65278 -0.61405,-0.65278 h -1.12672 c -0.87784,0 -2.00605,0.0402 -2.51577,0.50972 -0.49183,0.4486 -0.69601,0.89869 -0.92107,1.40841 -0.16394,0.1237 -0.45008,0.0209 -0.53207,-0.14308 0.32787,-0.91808 0.63341,-2.22515 0.77798,-3.04033 0.0596,-0.0417 0.32787,-0.0596 0.39047,0 0.11923,0.65278 0.79436,0.63341 1.7363,0.63341 h 8.28649 c 1.10585,0 1.29066,-0.0417 1.59916,-0.57229 0.10135,-0.0417 0.32491,-0.0194 0.36664,0.0596 -0.22356,0.83907 -0.36664,2.4919 -0.30554,3.10303 -0.0835,0.16394 -0.43223,0.16394 -0.53356,0.0417 -0.0611,-0.50972 -0.20568,-1.26534 -0.51269,-1.49037 -0.46796,-0.34727 -1.24745,-0.50972 -2.37267,-0.50972 h -1.45164 c -0.61553,0 -0.59465,0.0194 -0.59465,0.69154 v 9.08394" id="path934" />
<!-- I --><path style="stroke-width:1.49037147" inkscape:connector-curvature="0" d="m 196.06242,249.14851 c 0,-2.16403 -0.0402,-2.5113 -1.24894,-2.61263 l -0.50972,-0.0417 c -0.1237,-0.0805 -0.082,-0.44712 0.0402,-0.50972 0.85889,0.0395 1.71855,0.0603 2.57836,0.0626 0.81971,0 1.51273,-0.0209 2.53813,-0.0626 0.1237,0.0626 0.16394,0.42923 0.0387,0.50972 l -0.5112,0.0417 c -1.20721,0.10134 -1.24745,0.4486 -1.24745,2.61263 v 7.26413 c 0,2.16403 0.0402,2.45017 1.24745,2.59326 l 0.5112,0.0611 c 0.12371,0.079 0.085,0.44712 -0.0387,0.50821 -0.84604,-0.0372 -1.69275,-0.0571 -2.53961,-0.0596 -0.85846,0 -1.55445,0.0209 -2.57836,0.0596 -0.12072,-0.0596 -0.16245,-0.38751 -0.0388,-0.50821 l 0.50972,-0.0626 c 1.20869,-0.14159 1.24894,-0.42772 1.24894,-2.59326 v -7.26255" id="path932" />
<!-- T --><path style="stroke-width:1.49037147" inkscape:connector-curvature="0" d="m 208.91059,256.4563 c 0,2.14018 0.0402,2.44869 1.22806,2.55002 l 0.65577,0.0626 c 0.12072,0.079 0.079,0.44712 -0.0417,0.50821 -0.89331,-0.0355 -1.78718,-0.0554 -2.68129,-0.0596 -0.81822,0 -1.53508,0.0209 -2.84374,0.0596 -0.1237,-0.0596 -0.16394,-0.40836 0,-0.50821 l 0.73626,-0.0626 c 1.16549,-0.10134 1.26682,-0.40986 1.26682,-2.54854 v -9.12416 c 0,-0.63341 0,-0.65278 -0.61254,-0.65278 h -1.12522 c -0.87931,0 -2.00604,0.0402 -2.51724,0.50972 -0.49184,0.4486 -0.69602,0.89869 -0.91956,1.40841 -0.16395,0.1237 -0.45011,0.0209 -0.53356,-0.14308 0.32787,-0.91808 0.63489,-2.22515 0.77946,-3.04033 0.0596,-0.0417 0.32639,-0.0596 0.38751,0 0.1237,0.65278 0.79735,0.63341 1.73927,0.63341 h 8.28648 c 1.10585,0 1.29067,-0.0417 1.59769,-0.57229 0.10283,-0.0417 0.32787,-0.0194 0.36811,0.0596 -0.22355,0.83907 -0.36811,2.4919 -0.30702,3.10303 -0.082,0.16394 -0.43072,0.16394 -0.53208,0.0417 -0.0611,-0.50972 -0.20567,-1.26534 -0.51268,-1.49037 -0.46948,-0.34727 -1.24746,-0.50972 -2.37268,-0.50972 h -1.45312 c -0.61404,0 -0.59317,0.0194 -0.59317,0.69154 v 9.08394" id="path930" />
<!-- U --><path style="stroke-width:1.49037147" inkscape:connector-curvature="0" d="m 228.28338,251.16992 c 0,-1.26534 -0.0402,-3.6113 -0.38751,-4.22381 -0.14457,-0.24591 -0.51419,-0.38751 -1.02389,-0.42772 l -0.5112,-0.0447 c -0.1237,-0.1401 -0.0849,-0.4054 0.0387,-0.48737 0.77798,0.0417 1.53509,0.0626 2.33395,0.0626 0.85994,0 1.41287,-0.0209 2.14614,-0.0626 0.16692,0.10135 0.14456,0.36664 0.0447,0.48885 l -0.49184,0.0432 c -0.51419,0.0402 -0.90019,0.22355 -1.02388,0.48884 -0.28615,0.67366 -0.28615,3.02101 -0.28615,4.16269 v 2.30561 c 0,1.77503 -0.28614,3.65442 -1.43224,4.87812 -0.87932,0.95832 -2.39503,1.48738 -3.9079,1.48738 -1.41435,0 -2.82416,-0.26379 -3.82878,-1.11778 -1.0835,-0.89869 -1.5947,-2.38909 -1.5947,-4.81833 v -4.81542 c 0,-2.1223 -0.0417,-2.46957 -1.22957,-2.5709 l -0.50972,-0.0447 c -0.1237,-0.0775 -0.082,-0.42476 0.0402,-0.48737 1.0224,0.0417 1.71842,0.0626 2.53662,0.0626 0.83907,0 1.51421,-0.0209 2.51872,-0.0626 0.12221,0.0626 0.16245,0.40984 0.0402,0.48885 l -0.49183,0.0432 c -1.18634,0.10134 -1.22806,0.44712 -1.22806,2.5709 v 4.40849 c 0,3.2848 1.02388,5.44592 4.15528,5.44592 2.96598,0 4.09257,-2.325 4.09257,-5.42634 v -2.34733" id="path928" />
<!-- T --><path style="stroke-width:1.49037147" inkscape:connector-curvature="0" d="m 239.69221,256.4563 c 0,2.14018 0.0402,2.44869 1.22658,2.55002 l 0.65577,0.0626 c 0.12221,0.079 0.082,0.44712 -0.0417,0.50821 -0.89331,-0.0355 -1.78718,-0.0554 -2.68129,-0.0596 -0.81822,0 -1.5336,0.0209 -2.84374,0.0596 -0.12221,-0.0596 -0.16394,-0.40836 0,-0.50821 l 0.73626,-0.0626 c 1.16549,-0.10134 1.26979,-0.40986 1.26979,-2.54854 v -9.12416 c 0,-0.63341 0,-0.65278 -0.61553,-0.65278 h -1.12374 c -0.87931,0 -2.00604,0.0402 -2.51873,0.50972 -0.49183,0.4486 -0.6945,0.89869 -0.91956,1.40841 -0.16394,0.1237 -0.45008,0.0209 -0.53207,-0.14308 0.32787,-0.91808 0.63489,-2.22515 0.77798,-3.04033 0.0596,-0.0417 0.32787,-0.0596 0.38899,0 0.12221,0.65278 0.79735,0.63341 1.73926,0.63341 h 8.28649 c 1.10585,0 1.29066,-0.0417 1.59917,-0.57229 0.0999,-0.0417 0.32491,-0.0194 0.36515,0.0596 -0.22356,0.83907 -0.36515,2.4919 -0.30702,3.10303 -0.082,0.16394 -0.42924,0.16394 -0.53208,0.0417 -0.0611,-0.50972 -0.20418,-1.26534 -0.5112,-1.49037 -0.47096,-0.34727 -1.24894,-0.50972 -2.37416,-0.50972 h -1.45164 c -0.61552,0 -0.59317,0.0194 -0.59317,0.69154 v 9.08394" id="path926" />
<!-- E --><path style="stroke-width:1.49037147" inkscape:connector-curvature="0" d="m 249.28336,249.10617 c 0,-2.1223 -0.0417,-2.42932 -1.24894,-2.56942 l -0.32491,-0.0432 c -0.12519,-0.0805 -0.0849,-0.44712 0.0387,-0.50972 0.87931,0.0417 1.57533,0.0626 2.4144,0.0626 h 3.8481 c 1.30855,0 2.51576,0 2.76172,-0.0626 0.12221,0.34727 0.24442,1.81676 0.32787,2.7141 -0.0835,0.1237 -0.40986,0.16394 -0.51268,0.0417 -0.30554,-0.95981 -0.49184,-1.6737 -1.55446,-1.93749 -0.42923,-0.10433 -1.08349,-0.1237 -1.98516,-0.1237 h -1.47548 c -0.61105,0 -0.61105,0.0402 -0.61105,0.81523 v 4.08226 c 0,0.57229 0.0611,0.57229 0.67513,0.57229 h 1.18634 c 0.85995,0 1.49336,-0.0417 1.73927,-0.1237 0.24591,-0.0805 0.38899,-0.20418 0.49183,-0.71538 l 0.16394,-0.8346 c 0.10135,-0.12371 0.45009,-0.12371 0.53208,0.0194 0,0.49184 -0.082,1.28768 -0.082,2.06119 0,0.73625 0.082,1.51124 0.082,1.95985 -0.082,0.14307 -0.43071,0.14307 -0.53208,0.0194 l -0.1848,-0.79586 c -0.082,-0.36664 -0.22356,-0.67215 -0.63342,-0.77499 -0.28765,-0.082 -0.77946,-0.10135 -1.57681,-0.10135 h -1.18634 c -0.61404,0 -0.67664,0.0194 -0.67664,0.55144 v 2.87655 c 0,1.08054 0.0626,1.77356 0.39047,2.12231 0.24442,0.24442 0.67366,0.46796 2.47401,0.46796 1.57832,0 2.16998,-0.082 2.62009,-0.30403 0.36812,-0.20418 0.92107,-0.91956 1.45312,-1.98072 0.14308,-0.10135 0.42923,-0.0402 0.5112,0.14307 -0.14307,0.71538 -0.65577,2.28476 -0.91956,2.83607 -1.82792,-0.0395 -3.65627,-0.0594 -5.48455,-0.0596 h -1.84359 c -0.87931,0 -1.57533,0.0209 -2.78262,0.0596 -0.12221,-0.0596 -0.16394,-0.38751 -0.0402,-0.50821 l 0.67514,-0.0626 c 1.16697,-0.10135 1.26979,-0.40987 1.26979,-2.54855 v -7.34907" id="path924" />
</g>
</svg>